<?xml version="1.0" encoding="utf-8"?>
<!-- Generator: Adobe Illustrator 19.2.1, SVG Export Plug-In . SVG Version: 6.00 Build 0)  -->
<svg version="1.1" id="Layer_1" xmlns="http://www.w3.org/2000/svg" xmlns:xlink="http://www.w3.org/1999/xlink" x="0px" y="0px"
	 width="23.8px" height="23.8px" viewBox="0 0 23.8 23.8" style="enable-background:new 0 0 23.8 23.8;" xml:space="preserve">
<style type="text/css">
	.st0{fill:#49FF8E;}
</style>
<rect class="st0" width="23.8" height="23.8"/>
<g>
	<path d="M5.8,6.7V6.1l2.9-1.7h0.8l3.2,6.5l0.7-0.3V8.4c0-0.5-0.1-1-0.3-1.3s-0.4-0.5-0.6-0.5l-0.3-0.1V6l2.7-1.6
		c0.1,0,0.5,0.2,0.9,0.6c0.5,0.4,0.7,0.8,0.7,1.2v4.3c0,0.3-1.1,0.8-3.2,1.6l2.8,5.2c0.2,0.4,0.7,0.6,1.5,0.6v0.6l-3,1.7h-0.8
		l-3.5-7l-0.7,0.4v2.6c0,0.5,0.1,1,0.3,1.3c0.2,0.3,0.4,0.5,0.6,0.5l0.3,0.1v0.6l-2.7,1.6c-0.1,0-0.5-0.2-0.9-0.6s-0.7-0.8-0.7-1.2
		v-4.7c0-0.3,1.1-0.8,3.3-1.7L7.6,7.6C7.5,7.3,7.3,7.1,7.1,7C6.9,6.8,6.7,6.7,6.5,6.7C6.4,6.7,6.1,6.7,5.8,6.7z"/>
</g>
<g>
</g>
<g>
</g>
<g>
</g>
<g>
</g>
<g>
</g>
<g>
</g>
<g>
</g>
<g>
</g>
<g>
</g>
<g>
</g>
<g>
</g>
<g>
</g>
<g>
</g>
<g>
</g>
<g>
</g>
</svg>
