<?xml version="1.0" encoding="utf-8"?>
<!-- Generator: Adobe Illustrator 17.1.0, SVG Export Plug-In . SVG Version: 6.00 Build 0)  -->
<!DOCTYPE svg PUBLIC "-//W3C//DTD SVG 1.1//EN" "http://www.w3.org/Graphics/SVG/1.1/DTD/svg11.dtd">
<svg version="1.1" id="Layer_1" xmlns="http://www.w3.org/2000/svg" xmlns:xlink="http://www.w3.org/1999/xlink" x="0px" y="0px"
	 viewBox="282.6 -7.1 641.2 573.8" enable-background="new 282.6 -7.1 641.2 573.8" xml:space="preserve">
<g>
	<path fill="#FFFFFF" stroke="#FFFFFF" stroke-width="0.9793" stroke-miterlimit="10" d="M721.9,456.9l-118-271.8L485.8,456.9
		L284.1-6.6H364l121.8,284.2l78.7-183l39.4-92.4l39.4,91.2L722,277.6L843.7-6.6h79.3L721.9,456.9z"/>
</g>
<g>
	<path fill="#FFFFFF" stroke="#FFFFFF" stroke-width="0.9499" stroke-miterlimit="10" d="M356.1,565.5l-19.7-45.2l-19.6,45.2
		l-33.5-77.1h13.3l20.2,47.3l13.1-30.4l6.6-15.4l6.6,15.2l13.1,30.7l20.2-47.3h13.2L356.1,565.5z"/>
	<path fill="#FFFFFF" stroke="#FFFFFF" stroke-width="0.9499" stroke-miterlimit="10" d="M393,565.5v-77.1h12.1v77.1H393z"/>
	<path fill="#FFFFFF" stroke="#FFFFFF" stroke-width="0.9499" stroke-miterlimit="10" d="M470,499.2h-21.2v66.3h-12.2v-66.3h-21.2
		v-10.8H470L470,499.2L470,499.2z"/>
	<path fill="#FFFFFF" stroke="#FFFFFF" stroke-width="0.9499" stroke-miterlimit="10" d="M498.5,562.4c-4.7-2-8.7-4.7-12.3-8.3
		c-3.5-3.5-6.4-7.6-8.3-12.3c-2-4.7-3-9.8-3-15s1-10.3,3-15.1c2-4.6,4.7-8.6,8.3-12.2c3.5-3.6,7.6-6.4,12.3-8.3c4.7-2,9.8-3,15-3
		c5.8,0,11.5,1.2,16.7,3.7l-5.3,10.9c-3.5-1.7-7.4-2.6-11.4-2.6c-7,0-13.7,2.8-18.7,7.8c-5,5-7.8,11.7-7.8,18.7
		c0,7,2.8,13.7,7.8,18.7c5,5,11.7,7.8,18.7,7.8c4.2,0,8.1-0.9,11.8-2.8c1-0.4,2-1,2.8-1.5l6.7,10.1c-1.3,0.9-2.7,1.7-4.2,2.3
		c-5.3,2.7-11.1,4.1-17.1,4.1C508.3,565.5,503.2,564.4,498.5,562.4z"/>
	<path fill="#FFFFFF" stroke="#FFFFFF" stroke-width="0.9499" stroke-miterlimit="10" d="M600.7,488.4v77.1h-12.1v-33.2h-30.8v33.2
		h-12.1v-77.1h12.1v33h30.8v-33H600.7L600.7,488.4z"/>
	<path fill="#FFFFFF" stroke="#FFFFFF" stroke-width="0.9499" stroke-miterlimit="10" d="M635.5,562.4c-4.7-2-8.7-4.7-12.3-8.3
		c-3.5-3.5-6.4-7.6-8.3-12.3c-2-4.7-3-9.8-3-15s1-10.3,3-15.1c2-4.6,4.7-8.6,8.3-12.2c3.5-3.6,7.6-6.4,12.3-8.3c4.7-2,9.8-3,15-3
		c5.8,0,11.5,1.2,16.7,3.7l-5.3,10.9c-3.5-1.7-7.4-2.6-11.4-2.6c-7,0-13.7,2.8-18.7,7.8c-5,5-7.8,11.7-7.8,18.7
		c0,7,2.8,13.7,7.8,18.7c5,5,11.7,7.8,18.7,7.8c4.2,0,8.1-0.9,11.8-2.8c1-0.4,2-1,2.8-1.5l6.7,10.1c-1.3,0.9-2.7,1.7-4.2,2.3
		c-5.3,2.7-11.1,4.1-17.1,4.1C645.2,565.5,640.1,564.4,635.5,562.4z"/>
	<path fill="#FFFFFF" stroke="#FFFFFF" stroke-width="0.9499" stroke-miterlimit="10" d="M736.6,565.5H723l-19.5-26.1h-8.8v26.1
		h-12.1v-77.1h10.2h12.6c10.2,0,16.1,4.2,19.2,7.7c4.1,4.5,6.3,10.7,6.3,17.9c0,7-2.2,13.3-6.3,17.8c-1.9,2.1-4.7,4.5-8.9,5.9
		L736.6,565.5z M705.6,528.6c5,0,8.7-1.4,11.1-4.2c2.9-3.1,3.4-7.5,3.4-10.4c0-3.1-0.5-7.5-3.4-10.6c-2.4-2.7-6.2-4.1-11.1-4.1
		h-10.8v29.3L705.6,528.6L705.6,528.6z"/>
	<path fill="#FFFFFF" stroke="#FFFFFF" stroke-width="0.9499" stroke-miterlimit="10" d="M806.4,565.5h-13.2l-7-16.5h-26.4l-7,16.5
		h-13.3l33.5-77.1L806.4,565.5z M781.6,538.1l-8.5-20l-8.5,20H781.6z"/>
	<path fill="#FFFFFF" stroke="#FFFFFF" stroke-width="0.9499" stroke-miterlimit="10" d="M827.3,519.8h28.1v10.9h-28.1v34.8h-12.1
		v-77.1h12h34.4v10.8h-34.3V519.8L827.3,519.8z"/>
	<path fill="#FFFFFF" stroke="#FFFFFF" stroke-width="0.9499" stroke-miterlimit="10" d="M922.3,499.2h-21.2v66.3H889v-66.3h-21.2
		v-10.8h54.5V499.2L922.3,499.2z"/>
</g>
<line fill="none" stroke="#FFFFFF" stroke-width="10.4554" stroke-miterlimit="10" x1="282.9" y1="469.4" x2="923.1" y2="469.4"/>
</svg>
