<?xml version="1.0" encoding="utf-8"?>
<!-- Generator: Adobe Illustrator 17.1.0, SVG Export Plug-In . SVG Version: 6.00 Build 0)  -->
<!DOCTYPE svg PUBLIC "-//W3C//DTD SVG 1.1//EN" "http://www.w3.org/Graphics/SVG/1.1/DTD/svg11.dtd">
<svg version="1.1" id="Layer_1" xmlns="http://www.w3.org/2000/svg" xmlns:xlink="http://www.w3.org/1999/xlink" x="0px" y="0px"
	 viewBox="143.6 0 672.8 560" enable-background="new 143.6 0 672.8 560" xml:space="preserve">
<g>
	<path fill="#FFFFFF" d="M595.1,473.3L474.6,195.8L354,473.3L148,0h81.6L354,290.2l80.4-186.9l40.2-94.4l40.2,93.1l80.4,188.2
		L719.5,0h81L595.1,473.3z"/>
</g>
<g>
	<path fill="#FFFFFF" d="M220.3,560l-20.7-47.6L179,560l-35.3-81.2h14l21.3,49.8l13.8-32l6.9-16.2l6.9,16l13.8,32.3l21.3-49.8h13.9
		L220.3,560z"/>
	<path fill="#FFFFFF" d="M259.2,560v-81.2h12.7V560H259.2z"/>
	<path fill="#FFFFFF" d="M340.2,490.2h-22.3V560h-12.8v-69.8h-22.3v-11.4h57.4L340.2,490.2L340.2,490.2z"/>
	<path fill="#FFFFFF" d="M370.2,556.8c-4.9-2.1-9.2-5-12.9-8.7c-3.7-3.7-6.7-8-8.7-12.9c-2.1-4.9-3.2-10.3-3.2-15.8
		c0-5.5,1.1-10.8,3.2-15.9c2.1-4.8,5-9.1,8.7-12.8c3.7-3.8,8-6.7,12.9-8.7c4.9-2.1,10.3-3.2,15.8-3.2c6.1,0,12.1,1.3,17.6,3.9
		l-5.6,11.5c-3.7-1.8-7.8-2.7-12-2.7c-7.4,0-14.4,3-19.7,8.2c-5.3,5.3-8.2,12.3-8.2,19.7c0,7.4,3,14.4,8.2,19.7
		c5.3,5.3,12.3,8.2,19.7,8.2c4.4,0,8.5-1,12.4-3c1.1-0.4,2.1-1.1,3-1.6l7.1,10.6c-1.4,0.9-2.8,1.8-4.4,2.4c-5.6,2.8-11.7,4.3-18,4.3
		C380.5,560,375.2,558.9,370.2,556.8z"/>
	<path fill="#FFFFFF" d="M477.8,478.8V560h-12.7v-35h-32.4v35H420v-81.2h12.7v34.7h32.4v-34.7L477.8,478.8L477.8,478.8z"/>
	<path fill="#FFFFFF" d="M514.4,556.8c-4.9-2.1-9.2-5-12.9-8.7c-3.7-3.7-6.7-8-8.7-12.9c-2.1-4.9-3.2-10.3-3.2-15.8
		c0-5.5,1.1-10.8,3.2-15.9c2.1-4.8,5-9.1,8.7-12.8c3.7-3.8,8-6.7,12.9-8.7c4.9-2.1,10.3-3.2,15.8-3.2c6.1,0,12.1,1.3,17.6,3.9
		l-5.6,11.5c-3.7-1.8-7.8-2.7-12-2.7c-7.4,0-14.4,3-19.7,8.2c-5.3,5.3-8.2,12.3-8.2,19.7c0,7.4,3,14.4,8.2,19.7
		c5.3,5.3,12.3,8.2,19.7,8.2c4.4,0,8.5-1,12.4-3c1.1-0.4,2.1-1.1,3-1.6l7.1,10.6c-1.4,0.9-2.8,1.8-4.4,2.4c-5.6,2.8-11.7,4.3-18,4.3
		C524.7,560,519.3,558.9,514.4,556.8z"/>
	<path fill="#FFFFFF" d="M620.9,560h-14.3l-20.5-27.5h-9.3V560h-12.7v-81.2h10.7h13.3c10.7,0,17,4.4,20.2,8.1
		c4.3,4.7,6.6,11.3,6.6,18.8c0,7.4-2.3,14-6.6,18.7c-2,2.2-5,4.7-9.4,6.2L620.9,560z M588.2,521.2c5.3,0,9.2-1.5,11.7-4.4
		c3.1-3.3,3.6-7.9,3.6-11c0-3.3-0.5-7.9-3.6-11.2c-2.5-2.8-6.5-4.3-11.7-4.3h-11.4v30.8L588.2,521.2L588.2,521.2z"/>
	<path fill="#FFFFFF" d="M694.4,560h-13.9l-7.4-17.4h-27.8l-7.4,17.4h-14l35.3-81.2L694.4,560z M668.2,531.2l-9-21.1l-9,21.1H668.2z
		"/>
	<path fill="#FFFFFF" d="M716.4,511.9H746v11.5h-29.6V560h-12.7v-81.2h12.6h36.2v11.4h-36.1V511.9L716.4,511.9z"/>
	<path fill="#FFFFFF" d="M816.4,490.2h-22.3V560h-12.8v-69.8H759v-11.4h57.4L816.4,490.2L816.4,490.2z"/>
</g>
<line fill="none" stroke="#FFFFFF" stroke-width="6" stroke-miterlimit="10" x1="143.6" y1="471.1" x2="816.4" y2="471.1"/>
</svg>
