<?xml version="1.0" encoding="utf-8"?>
<!-- Generator: Adobe Illustrator 18.1.1, SVG Export Plug-In . SVG Version: 6.00 Build 0)  -->
<svg version="1.1" id="Layer_1" xmlns="http://www.w3.org/2000/svg" xmlns:xlink="http://www.w3.org/1999/xlink" x="0px" y="0px"
	 viewBox="0 0 610.7 542.7" enable-background="new 0 0 610.7 542.7" xml:space="preserve">
<g>
	<g>
		<path fill="#FFFFFF" d="M610.4,15.8h-4.9c-15,0-28.2,5.5-39.6,16.4c-6.5,5.7-11.2,12.8-14,21.3l-101,321.9
			c-8.1,25.6-12.6,48.1-13.4,67.6h-5.5L307.9,94.9l-92.5,280.5c-7.7,25.2-12,47.7-12.8,67.6h-5.5L59,52.9
			c-4.9-12.2-12.4-21.4-22.5-27.7C26.4,19,16,15.8,5.5,15.8H0.6V9.7h135.1v6.1h-5.5c-8.5,0-14.9,2.7-19.2,8.2s-6.4,10.6-6.4,15.5
			c0,4.9,0.6,9.3,1.8,13.4L199,349.3L312.2,0l5.5,0.6l119.9,336.5l81.5-284.8c1.2-4.5,1.8-9,1.8-13.7c0-4.7-2-9.6-6.1-14.9
			c-4.1-5.3-10.3-7.9-18.9-7.9h-5.5V9.7h119.9V15.8z"/>
	</g>
</g>
<g>
	<g>
		<path fill="#FFFFFF" d="M91.1,478.9h-0.7c-2.2,0-4.2,0.8-5.9,2.4c-1,0.8-1.7,1.9-2.1,3.2l-15,48c-1.2,3.8-1.9,7.2-2,10.1h-0.8
			L46,490.7l-13.8,41.8c-1.1,3.7-1.8,7.1-1.9,10.1h-0.8L9,484.4c-0.7-1.8-1.8-3.2-3.4-4.1c-1.5-0.9-3.1-1.4-4.6-1.4H0.3V478h20.1
			v0.9h-0.8c-1.3,0-2.2,0.4-2.9,1.2c-0.6,0.8-1,1.6-1,2.3s0.1,1.4,0.3,2l13.8,44.1l16.9-52l0.8,0.1l17.9,50.1l12.1-42.4
			c0.2-0.7,0.3-1.3,0.3-2c0-0.7-0.3-1.4-0.9-2.2c-0.6-0.8-1.5-1.2-2.8-1.2h-0.8V478h17.9V478.9z"/>
	</g>
	<g>
		<path fill="#FFFFFF" d="M96.7,540.5c1.6,0,2.9-0.6,4-1.7c1.1-1.1,1.7-2.5,1.8-4v-50.3c-0.1-1.6-0.7-2.9-1.8-4
			c-1.1-1.1-2.5-1.6-4-1.6h-1.2V478h19.9v0.9h-1.2c-1.6,0-2.9,0.5-4,1.6c-1.1,1.1-1.7,2.4-1.8,4v50.3c0,1.6,0.6,2.9,1.7,4
			c1.1,1.1,2.5,1.7,4.1,1.7h1.2v0.9H95.5v-0.9H96.7z"/>
	</g>
	<g>
		<path fill="#FFFFFF" d="M174.1,486c0-1.5-0.5-2.7-1.5-3.8c-1-1.1-2.2-1.6-3.6-1.7h-17.2v54.3c0.1,1.6,0.6,2.9,1.8,4
			c1.1,1.1,2.5,1.6,4,1.6h1.2v0.9h-19.9v-0.9h1.2c1.6,0,2.9-0.5,4-1.6c1.1-1.1,1.7-2.4,1.8-3.9v-54.4h-17.2
			c-1.5,0.1-2.7,0.6-3.7,1.7c-1,1.1-1.5,2.3-1.5,3.8v1.5l-0.9,0.1v-11.4c0.9,0.4,2.5,0.7,4.7,1.1c2.2,0.4,4.3,0.5,6.2,0.5h30.6
			c3,0,5.4-0.2,7.4-0.7c2-0.5,3.2-0.8,3.6-1v11.4l-0.9-0.1V486z"/>
	</g>
	<g>
		<path fill="#FFFFFF" d="M189,533.5c-6-6-9-14-9-23.9s3-17.8,9-23.9c6-6,14-9.1,23.9-9.1c8.1,0,15.3,2.1,21.5,6.2l1.8,12.8h-0.8
			c-1.3-5.2-4-9.2-8.1-12c-4-2.8-8.9-4.2-14.4-4.2c-7.9,0-14.2,2.8-19,8.2c-4.7,5.5-7.1,12.8-7.1,21.8c0,9.1,2.3,16.4,7,21.9
			c4.7,5.5,10.9,8.4,18.5,8.6c6.8,0,12.4-1.8,17-5.5c4.9-4,7.9-10.5,8.9-19.5h0.7l-1.1,14.2c-5.5,9-14,13.5-25.5,13.5
			C202.7,542.6,195,539.6,189,533.5z"/>
	</g>
	<g>
		<path fill="#FFFFFF" d="M293,540.5c1.6,0,2.9-0.5,4-1.6c1.1-1.1,1.7-2.4,1.8-4v-23.5h-37.1v23.4c0,1.6,0.6,2.9,1.7,4
			c1.1,1.1,2.5,1.7,4.1,1.7h1.2v0.9h-19.9v-0.9h1.2c1.6,0,2.9-0.6,4-1.7c1.1-1.1,1.7-2.5,1.8-4v-50.3c-0.1-1.6-0.7-2.9-1.8-4
			c-1.1-1.1-2.5-1.6-4-1.6h-1.2V478h19.9v0.9h-1.2c-1.6,0-2.9,0.5-4,1.6c-1.1,1.1-1.7,2.4-1.8,4v24.2h37.1v-24.2
			c-0.1-2.2-1-3.8-2.9-4.9c-0.9-0.5-1.9-0.7-2.9-0.7h-1.2V478h19.9v0.9h-1.2c-1.6,0-2.9,0.6-4,1.7c-1.1,1.1-1.7,2.5-1.8,4v50.2
			c0.1,1.6,0.6,2.9,1.8,4c1.1,1.1,2.5,1.7,4,1.7h1.2v0.9h-19.9v-0.9H293z"/>
	</g>
	<g>
		<path fill="#FFFFFF" d="M329.7,533.5c-6-6-9-14-9-23.9s3-17.8,9-23.9c6-6,14-9.1,23.9-9.1c8.1,0,15.3,2.1,21.5,6.2l1.8,12.8h-0.8
			c-1.3-5.2-4-9.2-8.1-12c-4-2.8-8.9-4.2-14.4-4.2c-7.9,0-14.2,2.8-19,8.2c-4.7,5.5-7.1,12.8-7.1,21.8c0,9.1,2.3,16.4,7,21.9
			c4.7,5.5,10.9,8.4,18.5,8.6c6.8,0,12.4-1.8,17-5.5c4.9-4,7.9-10.5,8.9-19.5h0.7l-1.1,14.2c-5.5,9-14,13.5-25.5,13.5
			C343.5,542.6,335.7,539.6,329.7,533.5z"/>
	</g>
	<g>
		<path fill="#FFFFFF" d="M408.3,480.8h-5.8v54c0,1.6,0.6,2.9,1.7,4c1.1,1.1,2.5,1.7,4.1,1.7h1.1l0.1,0.9h-19.9v-0.9h1.2
			c1.6,0,2.9-0.5,4-1.6c1.1-1.1,1.7-2.4,1.8-4v-50.3c-0.1-1.6-0.7-2.9-1.8-4c-1.1-1.1-2.5-1.7-4-1.7h-1.2V478h24.5
			c5.5,0,9.8,1.5,13,4.6c3.1,3.1,4.7,7,4.7,11.9c0,4.9-1.5,9.1-4.5,12.6c-3,3.5-6.6,5.3-10.9,5.3c0.9,0.4,2,1.3,3.2,2.5
			c1.2,1.2,2.3,2.5,3.3,3.9c5.2,7.4,8.6,12,10.2,13.7c1.6,1.7,2.7,2.9,3.4,3.5c0.7,0.6,1.4,1.3,2.2,1.9c0.8,0.6,1.6,1.1,2.4,1.5
			c1.8,0.8,3.6,1.3,5.6,1.3v0.9h-5c-2.6,0-5-0.5-7.3-1.4c-2.2-0.9-3.9-1.9-5-2.9c-1.1-1-2.1-2-2.9-2.9c-0.8-0.9-3.1-4.1-6.8-9.4
			c-3.7-5.3-5.8-8.4-6.4-9.1c-0.6-0.8-1.2-1.5-1.9-2.2c-1.9-2.1-3.9-3.1-5.8-3.1v-0.9c0.5,0.1,1.1,0.1,1.9,0.1c0.8,0,1.8,0,2.9-0.1
			c7.5-0.2,12.2-3.3,14.1-9.4c0.4-1.2,0.5-2.3,0.5-3.4c0-1.1,0-1.7,0-2c-0.1-4-1.2-7.3-3.2-9.8c-2-2.5-4.7-3.8-8.1-4
			C412.3,480.8,410.5,480.8,408.3,480.8z"/>
	</g>
	<g>
		<path fill="#FFFFFF" d="M507.7,540.5h0.7v0.9h-20.4v-0.9h0.8c1.3,0,2.2-0.4,2.9-1.2c0.6-0.8,1-1.6,1-2.3c0-0.7-0.1-1.5-0.4-2.2
			l-5.8-15.4H462l-6.1,15.5c-0.2,0.7-0.4,1.4-0.4,2.1c0,0.7,0.3,1.5,1,2.3c0.6,0.8,1.6,1.2,2.9,1.2h0.8v0.9H442v-0.9h0.8
			c1.5,0,3-0.5,4.4-1.5c1.5-1,2.6-2.4,3.5-4.3l20.5-48.8c2.2-4.9,3.4-8,3.4-9.3h0.8l24.3,58.1c0.8,1.9,2,3.3,3.4,4.3
			C504.6,540,506.2,540.5,507.7,540.5z M463.1,516.7h22.3l-10.9-29.1L463.1,516.7z"/>
	</g>
	<g>
		<path fill="#FFFFFF" d="M550.2,479v7.6h-0.9v-1.4c0-1.2-0.4-2.3-1.3-3.1c-0.8-0.9-1.9-1.3-3.2-1.3h-19.1v28H541
			c1.2-0.1,2.2-0.5,3.1-1.4c0.8-0.8,1.3-1.9,1.3-3.1V503h0.9v14.3h-0.9V516c0-1.2-0.4-2.2-1.2-3.1c-0.8-0.8-1.8-1.3-3-1.4h-15.4
			v23.3c0,1.6,0.6,2.9,1.7,4c1.1,1.1,2.5,1.7,4.1,1.7h1.2v0.9h-19.9v-0.9h1.2c1.6,0,2.9-0.6,4-1.7c1.1-1.1,1.7-2.5,1.8-4V484
			c0-1.5-0.6-2.7-1.8-3.7c-1.2-1-2.5-1.5-4-1.5h-1.1l-0.1-0.9h26.6c1.9,0,3.9-0.2,6.1-0.5c2.2-0.4,3.8-0.7,4.7-1.1V479z"/>
	</g>
	<g>
		<path fill="#FFFFFF" d="M609.8,486c0-1.5-0.5-2.7-1.5-3.8c-1-1.1-2.2-1.6-3.6-1.7h-17.2v54.3c0.1,1.6,0.6,2.9,1.8,4
			c1.1,1.1,2.5,1.6,4,1.6h1.2v0.9h-19.9v-0.9h1.2c1.6,0,2.9-0.5,4-1.6c1.1-1.1,1.7-2.4,1.8-3.9v-54.4h-17.2
			c-1.5,0.1-2.7,0.6-3.7,1.7c-1,1.1-1.5,2.3-1.5,3.8v1.5l-0.9,0.1v-11.4c0.9,0.4,2.5,0.7,4.7,1.1c2.2,0.4,4.3,0.5,6.2,0.5h30.6
			c3,0,5.4-0.2,7.4-0.7c2-0.5,3.2-0.8,3.6-1v11.4l-0.9-0.1V486z"/>
	</g>
</g>
<rect x="0.1" y="449.7" fill="#FFFFFF" width="610.7" height="14"/>
</svg>
